<svg width="160" height="187" viewBox="0 0 160 187" fill="none" xmlns="http://www.w3.org/2000/svg">
<path d="M-9.81038 2.79623C-23.3463 11.1114 -32.6519 22.6774 -36.7186 35.3372C-40.7909 48.0714 -39.7224 61.8005 -32.7915 74.5357C-26.083 86.8608 -14.0558 97.8425 0.698071 106.014C8.07446 110.108 16.2217 113.507 24.7735 116.028C33.3871 118.57 42.6304 120.329 51.7449 120.728C61.1331 121.136 70.9956 120.028 78.0211 115.677C85.4259 111.06 90.1837 104.312 92.0053 97.2952C93.8336 90.1893 93.4262 82.4891 89.9748 75.3804C88.4405 72.226 86.4358 69.1485 83.4033 66.532C80.7082 64.2012 77.3777 62.1721 73.8035 60.5708C67.1052 57.5591 58.2547 55.3555 51.0277 57.6341C47.3059 58.8085 44.3823 61.1506 41.9514 63.4027C39.1334 66.0244 36.7762 68.9731 35.1452 72.0931C33.5386 75.1704 32.8985 78.5909 32.3524 81.8851C31.7572 85.5497 31.5184 89.2469 31.6153 92.9747C31.8311 100.417 33.3518 107.919 36.1966 115.228C38.97 122.364 42.8816 129.53 48.348 135.968C53.5995 142.177 60.4942 147.606 68.3599 152.208C85.8491 162.46 107.2 168.026 128.462 171.709C133.965 172.661 139.477 173.495 145.015 174.271C146.143 174.434 147.168 173.733 147.226 172.974C147.29 172.125 146.37 171.456 145.241 171.293C123.99 168.301 102.214 164.436 83.1405 156.139C74.9836 152.589 67.368 148.309 60.933 143.222C54.3393 138 49.4891 132.068 45.6655 125.691C37.6604 112.362 34.4218 97.73 36.3257 83.7929C36.759 80.5933 37.2863 77.2674 38.6565 74.2435C39.9735 71.3647 42.0144 68.6871 44.417 66.2524C46.5209 64.1353 49.2171 61.7275 52.4299 60.5815C55.2526 59.5649 58.4434 59.5416 61.7239 60.0065C68.9094 61.0532 76.0783 64.5427 80.7219 68.7462C83.3903 71.1495 85.191 74.1333 86.4487 77.0375C87.9218 80.4413 88.7102 83.9624 88.8472 87.439C89.127 94.3178 87.2981 101.154 82.4891 106.907C80.1874 109.681 77.2855 112.295 73.6352 114.196C70.3375 115.904 66.3754 116.906 62.2828 117.402C53.7784 118.424 44.6849 117.473 36.1779 115.751C27.8167 114.057 19.6911 111.484 12.172 108.158C-2.78581 101.557 -15.5457 92.1579 -23.958 81.1317C-32.6204 69.7827 -36.1087 57.0471 -34.5146 44.6862C-32.9239 32.37 -26.3528 20.6589 -15.5974 11.4148C-12.9766 9.16504 -10.0944 7.08914 -6.99284 5.18324C-5.04076 3.95205 -7.83847 1.58186 -9.81038 2.79623Z" fill="black"/>
<path d="M134.051 183.934C134.15 183.748 134.269 183.578 134.389 183.393C134.316 183.507 134.223 183.619 134.151 183.733C135.003 182.562 136.224 181.56 137.402 180.569C138.627 179.522 139.871 178.492 141.137 177.463C141.859 176.882 142.603 176.303 143.347 175.724C143.234 175.819 143.122 175.899 142.987 175.992C143.844 175.318 144.762 174.679 145.599 173.988C146.638 173.15 146.883 171.878 146.01 170.82C145.388 170.072 144.504 169.434 143.729 168.746C143.013 168.124 142.32 167.489 141.669 166.843C140.919 166.112 140.191 165.368 139.505 164.628C139.603 164.743 139.701 164.842 139.819 164.958C137.939 162.92 136.298 160.799 134.876 158.593C134.478 157.969 134.082 157.331 133.707 156.68C133.522 156.332 132.973 156.011 132.496 155.877C131.999 155.726 131.321 155.71 130.863 155.879C130.405 156.047 129.982 156.31 129.827 156.687C129.67 157.079 129.725 157.46 129.95 157.857C132.309 161.955 135.47 165.84 139.271 169.377C139.786 169.861 140.322 170.331 140.859 170.802C141.397 171.257 141.999 171.703 142.47 172.198C142.373 172.084 142.274 171.984 142.156 171.868C142.273 171.999 142.369 172.128 142.463 172.288C142.409 172.162 142.334 172.035 142.28 171.91C142.335 172.02 142.37 172.128 142.383 172.235C142.372 172.099 142.361 171.962 142.329 171.824C142.343 171.915 142.335 172.02 142.307 172.108C142.339 171.975 142.37 171.843 142.422 171.712C142.393 171.815 142.344 171.9 142.296 171.986C142.368 171.872 142.461 171.761 142.533 171.647C142.391 171.844 142.209 172.008 142.006 172.17C142.119 172.075 142.231 171.995 142.366 171.902C138.92 174.552 135.455 177.185 132.334 180.03C131.423 180.85 130.636 181.726 130.073 182.713C129.877 183.057 129.967 183.546 130.196 183.883C130.425 184.22 130.907 184.565 131.407 184.686C132.526 185.029 133.611 184.692 134.051 183.934Z" fill="black"/>
</svg>
