<svg width="208" height="181" viewBox="0 0 208 181" fill="none" xmlns="http://www.w3.org/2000/svg">
<path d="M168.118 2.56999C181.649 10.7817 190.985 22.1434 195.109 34.5406C199.24 47.0107 198.255 60.4203 191.425 72.8215C184.814 84.8233 172.897 95.4786 158.248 103.371C150.924 107.324 142.828 110.594 134.324 113.003C125.759 115.433 116.562 117.094 107.485 117.425C98.1357 117.764 88.3052 116.619 81.2819 112.322C73.8792 107.763 69.1009 101.139 67.2458 94.2704C65.3835 87.3147 65.7448 79.7925 69.1415 72.8677C70.6516 69.7948 72.6307 66.8002 75.6362 64.2624C78.3073 62.0018 81.6131 60.0402 85.1641 58.498C91.8188 55.5974 100.622 53.5002 107.834 55.7728C111.548 56.944 114.474 59.2513 116.908 61.4676C119.731 64.0474 122.096 66.9439 123.738 70.0033C125.357 73.0206 126.014 76.3674 126.577 79.59C127.191 83.1749 127.45 86.7894 127.375 90.4317C127.204 97.7036 125.732 105.025 122.941 112.149C120.22 119.105 116.365 126.083 110.957 132.34C105.762 138.373 98.9253 143.635 91.1169 148.083C73.7552 157.99 52.5195 163.293 31.3617 166.758C25.8856 167.654 20.3997 168.434 14.8881 169.157C13.7654 169.309 12.7406 168.618 12.6787 167.875C12.6095 167.045 13.5227 166.397 14.6454 166.245C35.7963 163.456 57.4652 159.817 76.4167 151.83C84.5212 148.413 92.0824 144.279 98.4629 139.348C105.001 134.288 109.798 128.522 113.569 122.313C121.466 109.339 124.607 95.0609 122.63 81.4291C122.18 78.2997 121.636 75.0461 120.253 72.0824C118.925 69.2608 116.876 66.6312 114.469 64.2367C112.361 62.1545 109.661 59.7844 106.455 58.6441C103.637 57.6327 100.458 57.5898 97.1934 58.0232C90.0419 59.0004 82.9212 62.365 78.32 66.4433C75.6759 68.7749 73.8995 71.6793 72.6635 74.5094C71.2159 77.8263 70.4509 81.2623 70.3345 84.6588C70.0957 91.3791 71.957 98.071 76.7806 103.724C79.0893 106.449 81.9951 109.022 85.6421 110.903C88.9369 112.593 92.8894 113.598 96.9689 114.108C105.446 115.161 114.499 114.289 122.962 112.66C131.281 111.058 139.36 108.596 146.831 105.393C161.692 99.0369 174.348 89.9328 182.664 79.2111C191.227 68.1756 194.628 55.7523 192.968 43.6627C191.312 31.6169 184.699 20.1309 173.932 11.029C171.308 8.81385 168.426 6.76694 165.325 4.88475C163.373 3.66921 166.146 1.37075 168.118 2.56999Z" fill="black"/>
<path d="M25.0492 178.589C24.9499 178.406 24.8309 178.24 24.7107 178.06C24.7831 178.171 24.8763 178.28 24.9487 178.392C24.0962 177.246 22.8788 176.262 21.7044 175.29C20.4834 174.263 19.2427 173.252 17.9812 172.243C17.2608 171.672 16.5195 171.104 15.7783 170.535C15.8912 170.628 16.0029 170.707 16.1367 170.798C15.2825 170.137 14.3681 169.509 13.5337 168.831C12.4979 168.008 12.2474 166.768 13.1081 165.743C13.7205 165.018 14.5944 164.402 15.359 163.738C16.0658 163.136 16.7505 162.522 17.3922 161.897C18.1323 161.19 18.8503 160.47 19.5265 159.754C19.4306 159.865 19.3335 159.961 19.2167 160.073C21.0708 158.101 22.6866 156.045 24.0852 153.905C24.4764 153.301 24.8664 152.682 25.2342 152.05C25.4163 151.713 25.9583 151.403 26.4312 151.276C26.9239 151.132 27.5957 151.12 28.0512 151.288C28.5067 151.455 28.9277 151.713 29.0846 152.081C29.2426 152.464 29.1894 152.835 28.9692 153.22C26.6513 157.196 23.5378 160.959 19.7859 164.38C19.2782 164.848 18.7484 165.302 18.2186 165.757C17.6876 166.197 17.0927 166.628 16.628 167.107C16.7239 166.996 16.821 166.9 16.9378 166.788C16.8222 166.915 16.7275 167.04 16.6353 167.194C16.6882 167.072 16.762 166.949 16.8149 166.827C16.7608 166.934 16.7275 167.04 16.7151 167.143C16.7251 167.011 16.7351 166.878 16.7659 166.743C16.7523 166.832 16.7608 166.934 16.789 167.02C16.7572 166.891 16.7253 166.761 16.6726 166.634C16.702 166.734 16.7511 166.818 16.8001 166.902C16.7278 166.79 16.6345 166.681 16.5622 166.57C16.7045 166.763 16.8861 166.924 17.0886 167.083C16.9757 166.99 16.864 166.911 16.7302 166.82C20.164 169.422 23.6176 172.008 26.7307 174.798C27.6387 175.602 28.4251 176.46 28.9891 177.425C29.1853 177.76 29.0989 178.236 28.8738 178.563C28.6487 178.89 28.1718 179.223 27.6767 179.337C26.5686 179.664 25.4894 179.329 25.0492 178.589Z" fill="black"/>
</svg>
