<svg width="37" height="37" viewBox="0 0 37 37" fill="none" xmlns="http://www.w3.org/2000/svg">
<path d="M9.4356 0.642217C9.31639 0.290418 9.7997 0.0599692 9.99799 0.374069L12.8479 4.8899C16.5838 10.809 23.8894 13.3972 30.5183 11.1502L35.5755 9.43566C35.9273 9.31642 36.1578 9.79972 35.8436 9.99805L31.3278 12.8479C25.4088 16.5838 22.8205 23.8894 25.0675 30.5184L26.782 35.5755C26.9013 35.9274 26.418 36.1578 26.2196 35.8437L23.3698 31.3279C19.6339 25.4088 12.3283 22.8206 5.69932 25.0676L0.642157 26.7821C0.290351 26.9013 0.0599153 26.418 0.374009 26.2197L4.88984 23.3698C10.8089 19.6339 13.3971 12.3284 11.1501 5.69938L9.4356 0.642217Z" stroke="black" stroke-width="0.447761"/>
</svg>
