<svg width="240" height="97" viewBox="0 0 240 97" fill="none" xmlns="http://www.w3.org/2000/svg">
<path d="M4.8659 -14.491C4.8659 -17.181 2.6873 -19.362 0 -19.362V-54C21.7973 -54 39.4675 -36.3112 39.4675 -14.491V57.491C39.4675 60.181 41.646 62.362 44.3333 62.362C47.0207 62.362 49.1992 60.181 49.1992 57.491V-14.491C49.1992 -36.3112 66.8694 -54 88.667 -54C110.464 -54 128.134 -36.3112 128.134 -14.491V57.491C128.134 60.181 130.313 62.362 133 62.362C135.687 62.362 137.866 60.181 137.866 57.491V-14.491C137.866 -36.3112 155.536 -54 177.333 -54C199.131 -54 216.801 -36.3112 216.801 -14.491V57.491C216.801 60.181 218.979 62.362 221.667 62.362C224.354 62.362 226.533 60.181 226.533 57.491V-14.491C226.533 -36.3112 244.203 -54 266 -54V-19.362C263.313 -19.362 261.134 -17.181 261.134 -14.491V57.491C261.134 79.311 243.464 97 221.667 97C199.869 97 182.199 79.311 182.199 57.491V-14.491C182.199 -17.181 180.021 -19.362 177.333 -19.362C174.646 -19.362 172.467 -17.181 172.467 -14.491V57.491C172.467 79.311 154.797 97 133 97C111.203 97 93.533 79.311 93.533 57.491V-14.491C93.533 -17.181 91.354 -19.362 88.667 -19.362C85.979 -19.362 83.801 -17.181 83.801 -14.491V57.491C83.801 79.311 66.1306 97 44.3333 97C22.536 97 4.8659 79.311 4.8659 57.491V-14.491Z" fill="#FCF9F1"/>
</svg>
